<svg width="60" height="56" viewBox="0 0 60 56" fill="none" xmlns="http://www.w3.org/2000/svg">
<g clip-path="url(#clip0_6_73)">
<path d="M59.4656 28.4625L54.4688 22.0781C54.2259 21.7933 53.924 21.5646 53.5841 21.4077C53.2442 21.2509 52.8744 21.1697 52.5 21.1697C52.1257 21.1697 51.7558 21.2509 51.4159 21.4077C51.076 21.5646 50.7742 21.7933 50.5313 22.0781L45.5344 28.4625C45.3325 28.721 45.1835 29.0168 45.0959 29.3329C45.0083 29.6491 44.9838 29.9794 45.0238 30.3049C45.0639 30.6305 45.1677 30.945 45.3293 31.2305C45.4909 31.516 45.7071 31.7668 45.9656 31.9688C46.2242 32.1707 46.52 32.3197 46.8361 32.4073C47.1522 32.4949 47.4825 32.5193 47.8081 32.4793C48.1337 32.4393 48.4482 32.3355 48.7337 32.1739C49.0191 32.0123 49.27 31.796 49.4719 31.5375L49.65 31.3031C48.791 36.281 46.2818 40.825 42.5265 44.2036C38.7712 47.5821 33.9882 49.5988 28.9475 49.9287C23.9068 50.2587 18.9018 48.8829 14.7381 46.0227C10.5743 43.1625 7.49421 38.9844 5.99354 34.161C4.49288 29.3376 4.65898 24.1495 6.46511 19.432C8.27124 14.7144 11.6123 10.7419 15.9505 8.15395C20.2886 5.56597 25.3715 4.5131 30.3807 5.16483C35.3899 5.81657 40.0341 8.135 43.5656 11.7469C44.0379 12.1788 44.6576 12.4135 45.2975 12.4026C45.9374 12.3918 46.5489 12.1362 47.0062 11.6885C47.4635 11.2408 47.7319 10.6349 47.7564 9.99541C47.7808 9.35588 47.5593 8.73129 47.1375 8.25C42.7707 3.78639 37.0156 0.940848 30.8176 0.180894C24.6196 -0.57906 18.3474 0.791777 13.0316 4.06818C7.7158 7.34457 3.67252 12.3317 1.56607 18.21C-0.540378 24.0884 -0.584699 30.5085 1.44039 36.4154C3.46547 42.3223 7.43952 47.3648 12.7096 50.7142C17.9797 54.0637 24.2323 55.521 30.4402 54.8467C36.6481 54.1724 42.442 51.4066 46.87 47.0037C51.298 42.6008 54.0967 36.8227 54.8063 30.6187L55.5281 31.5562C55.9359 32.0784 56.5344 32.4172 57.1919 32.498C57.8495 32.5789 58.5122 32.3953 59.0344 31.9875C59.5565 31.5797 59.8953 30.9812 59.9762 30.3237C60.0571 29.6661 59.8734 29.0034 59.4656 28.4812V28.4625Z" fill="white"/>
<path d="M27.4969 10.0031C26.8363 10.0056 26.2034 10.2691 25.7363 10.7362C25.2691 11.2034 25.0056 11.8362 25.0031 12.4969V27.4969C25.0003 27.6932 25.0256 27.8889 25.0781 28.0781C25.1156 28.2624 25.1821 28.4396 25.275 28.6031C25.3395 28.7674 25.4314 28.9196 25.5469 29.0531C25.5469 29.0531 25.6031 29.1281 25.6219 29.1469C25.7267 29.2704 25.8464 29.3806 25.9781 29.475L26.0813 29.55L30 32.5031L36 37.0031C36.4306 37.3314 36.9586 37.5062 37.5 37.5C38.0238 37.498 38.5337 37.3318 38.9581 37.0248C39.3824 36.7177 39.6997 36.2853 39.8654 35.7884C40.031 35.2915 40.0366 34.7552 39.8813 34.255C39.7261 33.7547 39.4179 33.3158 39 33L38.2031 32.4L34.9969 30L31.6781 27.4969L30 26.25V12.4969C29.9975 11.8346 29.7327 11.2003 29.2636 10.7329C28.7944 10.2655 28.1591 10.0031 27.4969 10.0031Z" fill="white"/>
</g>
<defs>
<clipPath id="clip0_6_73">
<rect width="60" height="55.0031" fill="white"/>
</clipPath>
</defs>
</svg>
