<svg width="84" height="84" viewBox="0 0 84 84" fill="none" xmlns="http://www.w3.org/2000/svg">
<path d="M78.0576 16.4219L62.1207 17.7916C62.0402 17.7985 61.9634 17.8286 61.8996 17.8782C61.8358 17.9278 61.7877 17.9948 61.7611 18.0711C61.7345 18.1474 61.7306 18.2298 61.7498 18.3083C61.7689 18.3868 61.8104 18.4581 61.8692 18.5136L65.8895 22.3052L64.9971 23.216L64.4016 23.8237L61.3789 26.9617C60.2142 28.1893 59.0541 29.4198 57.8987 30.6532C57.071 31.5403 56.2479 32.4326 55.4295 33.3301C53.4703 35.4745 51.5361 37.6433 49.6268 39.8365C48.6769 40.9367 47.7304 42.042 46.798 43.1596C46.55 43.4565 46.3055 43.7568 46.0593 44.0554L45.0622 43.4949L29.5051 34.7498L27.022 33.3546L25.2426 35.2929L23.0162 37.7184L5.48761 56.8115L9.16865 60.4018L28.1343 42.0996H28.1361L39.2386 49.322L44.9155 53.0153L46.9743 54.3546L47.4458 54.6602L50.1245 52.3133C51.2211 51.3511 52.3009 50.3732 53.3638 49.3796C54.4307 48.3878 55.4819 47.3837 56.5297 46.3761C58.6216 44.3557 60.6828 42.3074 62.713 40.2312C64.7526 38.1619 66.7538 36.056 68.7497 33.9465L71.72 30.7579L72.1217 30.3196L73.1719 29.1735L77.0104 32.7937C77.0686 32.8485 77.1413 32.8856 77.2199 32.9005C77.2984 32.9154 77.3796 32.9074 77.4539 32.8776C77.5281 32.8478 77.5922 32.7974 77.6387 32.7323C77.6851 32.6672 77.712 32.5901 77.7161 32.5103L78.5118 16.8604C78.5148 16.8006 78.505 16.7409 78.4831 16.6853C78.4611 16.6297 78.4275 16.5794 78.3844 16.5378C78.3414 16.4963 78.29 16.4644 78.2336 16.4444C78.1772 16.4244 78.1172 16.4167 78.0576 16.4219Z" fill="#34A853"/>
</svg>
