<svg id="Layer_1" data-name="Layer 1" xmlns="http://www.w3.org/2000/svg" viewBox="0 0 1034.35 189.66"><defs><style>.cls-1{fill:#2d323a;}.cls-2{fill:#34a853;}.cls-3{fill:#4285f4;}.cls-4{fill:#fbbc05;}.cls-5{fill:#ea4335;}</style></defs><title>intervuMe-original-black-logo</title><path class="cls-1" d="M274.58,54.19c0-6.85,5.36-12.21,12.8-12.21s12.8,5.36,12.8,12.21-5.51,12.2-12.8,12.2S274.58,61,274.58,54.19Zm2.23,22h20.84v82.46H276.81Z" transform="translate(-7.82 -6.17)"/><path class="cls-1" d="M378.18,113.13c0-13.25-7.3-20.39-18.31-20.39-11.31,0-18.61,7.14-18.61,20.39v45.55H320.42V76.22h20.84V86.49c5.36-7,14.29-11.47,24.86-11.47,19.2,0,32.9,12.51,32.9,35.28v48.38H378.18Z" transform="translate(-7.82 -6.17)"/><path class="cls-1" d="M424.32,93.33h-9.83V76.22h9.83V55.82h21v20.4h18.46V93.33H445.3v39.9c0,5.5,2.24,7.89,8.79,7.89h9.67v17.56h-13.1c-15.77,0-26.34-6.7-26.34-25.6Z" transform="translate(-7.82 -6.17)"/><path class="cls-1" d="M517.05,160c-24,0-41.38-16.67-41.38-42.57,0-26,17-42.57,41.38-42.57,23.81,0,40.63,16.22,40.63,40.78a48.35,48.35,0,0,1-.59,8H496.81c1,12.2,9.37,19,19.79,19,8.93,0,13.84-4.46,16.52-10H555.6C551.13,148,537.44,160,517.05,160ZM497,109.71H536.1C535.8,98.84,527.17,92,516.45,92,506.48,92,498.59,98.39,497,109.71Z" transform="translate(-7.82 -6.17)"/><path class="cls-1" d="M595.93,158.68H575.1V76.22h20.83V89a28.61,28.61,0,0,1,25.31-14V96.91h-5.51c-12.35,0-19.8,4.76-19.8,20.69Z" transform="translate(-7.82 -6.17)"/><path class="cls-1" d="M651,76.22l20.84,63.26,20.83-63.26h22.18l-30.51,82.46H659L628.68,76.22Z" transform="translate(-7.82 -6.17)"/><path class="cls-1" d="M806.7,158.68h-21V148.26c-5.21,7-14.29,11.46-24.56,11.46-19.2,0-33-12.5-33-35.13V76.22H749v45.4c0,13.24,7.29,20.39,18.31,20.39,11.31,0,18.45-7.15,18.45-20.39V76.22h21Z" transform="translate(-7.82 -6.17)"/><path class="cls-1" d="M829.47,54.78h23.67L886.19,132l33-77.25h23.52v103.9H921.91V91.1l-27.84,67.58H878.3l-28-67.58v67.58H829.47Z" transform="translate(-7.82 -6.17)"/><path class="cls-1" d="M1001.54,160c-24,0-41.38-16.67-41.38-42.57,0-26,17-42.57,41.38-42.57,23.82,0,40.64,16.22,40.64,40.78a48.37,48.37,0,0,1-.6,8H981.3c1,12.2,9.37,19,19.79,19,8.93,0,13.85-4.46,16.53-10h22.47C1035.63,148,1021.93,160,1001.54,160Zm-20.09-50.31h39.14c-.29-10.87-8.93-17.72-19.65-17.72C991,92,983.08,98.39,981.45,109.71Z" transform="translate(-7.82 -6.17)"/><path class="cls-2" d="M179.13,147.27c13.08,8.1,19.12,19.69,18.38,34.86-.13,2.58.06,5.18,0,7.77-.14,3.66-2.15,5.85-5.76,5.86q-29.61.11-59.21,0c-3.08,0-5.38-1.75-5.42-4.93-.07-6.4-.37-12.9.59-19.17,1.58-10.33,6.45-16.53,17.54-24.51-5.56-6.68-7.87-14.28-5.48-22.88a22.69,22.69,0,0,1,9.37-12.89,23.43,23.43,0,0,1,29.56,2.79C187.59,123.06,187.83,134.65,179.13,147.27ZM138.3,184.41h47.88c1.13-11.43-1.7-21-11.91-26.91-8.38-4.87-17.09-4.63-25.24.63C139.53,164.27,137.07,173.55,138.3,184.41ZM150,130.7A12.25,12.25,0,0,0,162.13,143a12.5,12.5,0,0,0,12.33-12.24,12.27,12.27,0,0,0-12.22-12.24A12.09,12.09,0,0,0,150,130.7Z" transform="translate(-7.82 -6.17)"/><path class="cls-3" d="M60.51,45.55c3.65,3.53,7.58,6.74,10.79,10.55a30,30,0,0,1,7,18.71c.14,4.31.13,8.63.09,13,0,5.06-1.81,6.83-7,6.85-12.83,0-25.67,0-38.5,0-6.05,0-12.09.05-18.14,0-5,0-6.91-2-6.91-7s-.26-9.92.31-14.79C9.57,61,16.08,52.38,26.34,46.07,21.39,40.16,18.82,33.61,20.08,26a22.92,22.92,0,0,1,8.28-14.44,23.26,23.26,0,0,1,30.79,1C68.5,21.37,68.92,33.55,60.51,45.55Zm6.32,37.73c2-10.94-1.9-20.92-10.44-26.27-8.74-5.49-17.79-5.59-26.45.05-9.42,6.14-11.89,15.4-10.72,26.22ZM55.36,29.45A12.21,12.21,0,0,0,43,17.33,12.43,12.43,0,0,0,30.9,29.74,12.25,12.25,0,0,0,43.32,41.79,12.09,12.09,0,0,0,55.36,29.45Z" transform="translate(-7.82 -6.17)"/><path class="cls-4" d="M133.59,94.63H93.25c-2.89,0-5.83.06-7.36-3s.07-5.41,1.85-7.76c4.55-6,9.12-12,13.47-18.09A10.15,10.15,0,0,0,103,60.39c.18-9.74,0-19.49.1-29.23.11-15.32,9.78-24.95,25-25q22.4,0,44.77,0c14.67,0,24.58,10,24.61,24.65q0,19.6,0,39.22c0,14.54-9.72,24.39-24.3,24.54C160,94.73,146.78,94.63,133.59,94.63Zm-31.36-11.5c1.21.18,1.77.34,2.33.35,23.07,0,46.14.09,69.2-.06,7.77,0,12.54-5.16,12.58-13,.08-13.07,0-26.15,0-39.23,0-9-4.89-13.87-14-13.88q-22,0-44,0c-9.36,0-14,4.67-14.08,14.15-.06,10.36.17,20.73-.14,31.08a17.08,17.08,0,0,1-2.67,8.1C108.79,74.88,105.53,78.72,102.23,83.13Z" transform="translate(-7.82 -6.17)"/><path class="cls-4" d="M133,40c.15-8.35,8-16,17.32-16a17.67,17.67,0,0,1,17.44,16.72c.53,8.89-6.74,17.3-15.59,18-4.21.34-6.78-1.25-7.26-4.49-.52-3.48,1.52-5.76,5.83-6.55,4.63-.84,7-4.6,5.4-8.53a5.91,5.91,0,0,0-6-4A6,6,0,0,0,144.19,40c-.19.71-.15,1.47-.32,2.19-.78,3.4-3.27,5.33-6.38,4.72C134.2,46.25,132.78,44.05,133,40Z" transform="translate(-7.82 -6.17)"/><path class="cls-4" d="M155.84,71.37A5.54,5.54,0,0,1,150,76.69a5.35,5.35,0,0,1-5.16-5.58,5.52,5.52,0,0,1,5.42-5.42A5.73,5.73,0,0,1,155.84,71.37Z" transform="translate(-7.82 -6.17)"/><path class="cls-5" d="M55.05,134.17c5.67,0,11.34,0,17,0,4.15.05,6.37,2.08,6.33,5.57,0,3.27-2.28,5.47-6.12,5.5q-17.18.13-34.36,0c-3.87,0-6.4-2.59-6.23-5.84s2.57-5.19,6.39-5.23C43.72,134.13,49.39,134.17,55.05,134.17Z" transform="translate(-7.82 -6.17)"/><path class="cls-5" d="M54.85,195.81c-7.77,0-15.55.06-23.31,0C18.06,195.66,8,185.56,7.89,172.06q-.13-20.53,0-41.07c.09-13.08,9.57-23.32,22.65-23.47,27.74-.33,55.5-.2,83.24,0,1.94,0,4.79,1.57,5.54,3.18s.06,4.67-1.08,6.35c-4.38,6.4-9.33,12.42-13.78,18.78a12.28,12.28,0,0,0-2.08,6.37c-.23,9.49,0,19-.11,28.49-.1,15.53-9.73,25.1-25.22,25.13Zm48.31-77c-1.38-.14-2-.26-2.59-.26-22.82,0-45.64-.08-68.46,0-8.4,0-13.08,5.07-13.11,13.61q-.06,19.24,0,38.49c0,9.26,4.85,14,14.23,14q21.65,0,43.3,0c10.06,0,14.58-4.56,14.61-14.75,0-10.36-.14-20.72.11-31.08a14.52,14.52,0,0,1,2.38-7.09C96.4,127.44,99.68,123.45,103.16,118.77Z" transform="translate(-7.82 -6.17)"/><path class="cls-5" d="M46.2,158c2.83,0,5.66-.07,8.48,0,3.56.1,5.75,2.14,5.86,5.28A5.35,5.35,0,0,1,55.11,169q-9,.25-18.06,0a5.49,5.49,0,0,1-5.39-5.48c0-3,2.33-5.31,5.7-5.54.24,0,.49,0,.73,0Z" transform="translate(-7.82 -6.17)"/></svg>