<svg width="170" height="31" viewBox="0 0 170 31" fill="none" xmlns="http://www.w3.org/2000/svg">
<g clip-path="url(#clip0_7_25)">
<path d="M43.8432 7.849C43.8432 6.72937 44.7241 5.85327 45.9469 5.85327C47.1697 5.85327 48.0507 6.72937 48.0507 7.849C48.0507 8.96864 47.1451 9.8431 45.9469 9.8431C44.7488 9.8431 43.8432 8.9621 43.8432 7.849ZM44.2097 11.4449H47.6349V24.923H44.2097V11.4449Z" fill="#707070"/>
<path d="M60.8703 17.4828C60.8703 15.317 59.6705 14.15 57.861 14.15C56.0021 14.15 54.8023 15.317 54.8023 17.4828V24.9279H51.3772V11.4498H54.8023V13.1284C55.6833 11.9843 57.151 11.2537 58.8882 11.2537C62.0438 11.2537 64.2955 13.2984 64.2955 17.0202V24.9279H60.8703V17.4828Z" fill="#707070"/>
<path d="M68.4536 14.2463H66.838V11.4496H68.4536V8.11523H71.9051V11.4496H74.939V14.2463H71.9018V20.7679C71.9018 21.6669 72.2699 22.0576 73.3464 22.0576H74.9358V24.9277H72.7827C70.1908 24.9277 68.4536 23.8326 68.4536 20.7434V14.2463Z" fill="#707070"/>
<path d="M83.6942 25.1435C79.7497 25.1435 76.8932 22.4187 76.8932 18.1854C76.8932 13.9357 79.6872 11.2273 83.6942 11.2273C87.6074 11.2273 90.3719 13.8785 90.3719 17.8928C90.376 18.3306 90.3436 18.768 90.2749 19.2004H80.3676C80.532 21.1945 81.9076 22.306 83.6202 22.306C85.0879 22.306 85.8949 21.577 86.3353 20.6715H90.03C89.2954 23.1821 87.0454 25.1435 83.6942 25.1435ZM80.3989 16.9235H86.8251C86.7758 15.1468 85.3574 14.0288 83.5956 14.0288C81.9569 14.0288 80.6602 15.0733 80.3989 16.9235Z" fill="#707070"/>
<path d="M96.6585 24.9277H93.235V11.4496H96.6585V13.5385C97.0849 12.8239 97.6951 12.2353 98.4262 11.8331C99.1573 11.4309 99.983 11.2297 100.818 11.2502V14.8314H99.9127C97.8829 14.8314 96.6585 15.6094 96.6585 18.2132V24.9277Z" fill="#707070"/>
<path d="M105.709 11.4497L109.135 21.7896L112.558 11.4497H116.203L111.189 24.9278H107.024L102.041 11.4497H105.709Z" fill="#707070"/>
<path d="M131.3 24.9278H127.848V23.2247C126.992 24.3688 125.499 25.0978 123.812 25.0978C120.656 25.0978 118.388 23.0547 118.388 19.3558V11.4497H121.816V18.8704C121.816 21.0344 123.014 22.2031 124.826 22.2031C126.684 22.2031 127.858 21.0344 127.858 18.8704V11.4497H131.309L131.3 24.9278Z" fill="#707070"/>
<path d="M135.042 7.94533H138.932L144.364 20.567L149.788 7.94043H153.653V24.9229H150.235V13.8819L145.659 24.9278H143.067L138.465 13.8819V24.9278H135.042V7.94533Z" fill="#707070"/>
<path d="M163.322 25.1435C159.378 25.1435 156.521 22.4187 156.521 18.1854C156.521 13.9357 159.315 11.2273 163.322 11.2273C167.237 11.2273 170.002 13.8785 170.002 17.8928C170.005 18.3306 169.972 18.768 169.903 19.2004H159.996C160.16 21.1945 161.536 22.306 163.248 22.306C164.716 22.306 165.525 21.577 165.965 20.6715H169.658C168.925 23.1821 166.673 25.1435 163.322 25.1435ZM160.02 16.9203H166.453C166.406 15.1436 164.986 14.0239 163.224 14.0239C161.59 14.0288 160.288 15.0733 160.02 16.9235V16.9203Z" fill="#707070"/>
<path d="M28.1556 23.0629C30.3053 24.3868 31.298 26.2812 31.1764 28.7608C31.155 29.1825 31.1863 29.6074 31.1764 30.0308C31.1534 30.629 30.823 30.9869 30.2297 30.9886C26.9854 31.0006 23.7415 31.0006 20.4983 30.9886C19.9921 30.9886 19.6141 30.7025 19.6075 30.1828C19.596 29.1367 19.5467 28.0743 19.7045 27.0494C19.9641 25.361 20.7645 24.3476 22.5872 23.0433C21.6734 21.9514 21.2938 20.7092 21.6866 19.3035C21.9269 18.4391 22.474 17.6907 23.2266 17.1966C23.9647 16.7029 24.852 16.4785 25.7376 16.5616C26.6233 16.6448 27.4527 17.0303 28.0849 17.6527C29.546 19.1057 29.5854 21.0001 28.1556 23.0629ZM21.445 29.1334H29.3143C29.5 27.2652 29.0349 25.701 27.3568 24.735C25.9795 23.939 24.548 23.9782 23.2085 24.8379C21.6471 25.8415 21.2428 27.3583 21.445 29.1334ZM23.3679 20.3545C23.3657 20.8836 23.5742 21.392 23.9477 21.7687C24.3213 22.1454 24.8296 22.3598 25.3615 22.3649C25.8942 22.3578 26.4033 22.1452 26.7814 21.772C27.1595 21.3987 27.377 20.894 27.388 20.3643C27.3867 19.8347 27.1748 19.327 26.7985 18.9522C26.4223 18.5774 25.9122 18.3658 25.3796 18.3637C25.1154 18.3604 24.8531 18.4096 24.6082 18.5084C24.3633 18.6071 24.1406 18.7535 23.9533 18.9389C23.766 19.1243 23.6177 19.345 23.5172 19.588C23.4167 19.8311 23.3659 20.0917 23.3679 20.3545Z" fill="#707070"/>
<path d="M8.6598 6.43658C9.2597 7.01356 9.90561 7.53824 10.4332 8.16099C11.1567 9.01973 11.5627 10.099 11.5837 11.2191C11.6067 11.9236 11.605 12.6297 11.5985 13.344C11.5985 14.1711 11.301 14.4604 10.448 14.4636C8.33931 14.4636 6.229 14.4636 4.12033 14.4636C3.12599 14.4636 2.13329 14.4718 1.13894 14.4636C0.317173 14.4636 0.00325574 14.1367 0.00325574 13.3195C0.00325574 12.5022 -0.0394765 11.6981 0.0542055 10.902C0.287589 8.96189 1.35754 7.55295 3.04381 6.52158C2.23026 5.55559 1.80787 4.48499 2.01495 3.24113C2.15513 2.31259 2.64081 1.47025 3.37581 0.880906C4.09422 0.289671 5.00515 -0.0200414 5.93715 0.0100618C6.86916 0.040165 7.75796 0.408007 8.43628 1.04436C9.973 2.48435 10.042 4.47518 8.6598 6.43658ZM9.69852 12.6036C10.0272 10.8154 9.38625 9.18419 7.98266 8.30973C6.54621 7.41238 5.0588 7.39604 3.63549 8.3179C2.08727 9.32148 1.68131 10.835 1.87361 12.6036H9.69852ZM7.81338 3.80503C7.81145 3.54212 7.7573 3.28217 7.65404 3.04012C7.55078 2.79808 7.40045 2.57872 7.21168 2.39463C7.02292 2.21055 6.79943 2.06537 6.55407 1.96745C6.30871 1.86952 6.04632 1.82078 5.78196 1.82402C5.25016 1.83806 4.74485 2.05785 4.37347 2.43665C4.00209 2.81545 3.79394 3.32338 3.79327 3.85243C3.80192 4.38263 4.0217 4.88776 4.40438 5.257C4.78707 5.62624 5.30141 5.82944 5.83455 5.82201C6.09829 5.82098 6.35919 5.76775 6.60204 5.66541C6.84488 5.56307 7.06481 5.41368 7.24899 5.22594C7.43318 5.0382 7.57794 4.81587 7.67484 4.57192C7.77174 4.32797 7.81883 4.06727 7.81338 3.80503Z" fill="#707070"/>
<path d="M20.6709 14.4587H14.0408C13.5658 14.4587 13.0826 14.4686 12.8312 13.9684C12.5797 13.4682 12.8427 13.0841 13.1352 12.7C13.883 11.7193 14.6341 10.7386 15.3491 9.7432C15.5294 9.48336 15.6315 9.17773 15.6433 8.86221C15.6729 7.2702 15.6433 5.67656 15.6597 4.08455C15.6778 1.58049 17.2671 0.00646354 19.7686 -0.00170898C22.2229 -0.00170898 24.6756 -0.00170898 27.1267 -0.00170898C29.5378 -0.00170898 31.1665 1.63279 31.1715 4.02734C31.1715 6.16309 31.1715 8.29994 31.1715 10.4379C31.1715 12.8144 29.574 14.4244 27.1777 14.4489C25.0115 14.4751 22.8387 14.4587 20.6709 14.4587ZM15.5167 12.5791C15.7156 12.6085 15.8076 12.6346 15.8997 12.6363C19.6913 12.6363 23.483 12.651 27.273 12.6265C28.55 12.6265 29.334 11.7831 29.3406 10.5016C29.3537 8.36532 29.3406 6.22739 29.3406 4.08945C29.3406 2.6184 28.5369 1.8224 27.0396 1.82076C24.6291 1.82076 22.2185 1.82076 19.808 1.82076C18.2697 1.82076 17.5071 2.58408 17.4939 4.13359C17.484 5.82693 17.5218 7.52191 17.4709 9.21362C17.4395 9.68474 17.2886 10.1403 17.0321 10.5376C16.5949 11.2306 16.0591 11.8583 15.5167 12.5791Z" fill="#707070"/>
<path d="M20.5739 5.52951C20.5985 4.1647 21.8887 2.91431 23.4205 2.91431C24.1579 2.92279 24.8644 3.20993 25.3967 3.71746C25.929 4.22498 26.2472 4.91489 26.2868 5.6472C26.3739 7.10027 25.1791 8.47489 23.7246 8.5893C23.0326 8.64488 22.6102 8.38499 22.5313 7.85541C22.4459 7.2866 22.7812 6.91394 23.4895 6.78481C24.2505 6.64751 24.64 6.03294 24.377 5.39058C24.3083 5.18866 24.1742 5.01503 23.9959 4.89677C23.8175 4.77851 23.6048 4.72226 23.3909 4.73678C23.1605 4.73444 22.9364 4.81245 22.7578 4.95727C22.5792 5.10209 22.4572 5.30456 22.413 5.52951C22.3818 5.64556 22.3884 5.76978 22.3604 5.88747C22.2322 6.4432 21.823 6.75866 21.3118 6.65895C20.7711 6.55108 20.5377 6.19149 20.5739 5.52951Z" fill="#707070"/>
<path d="M24.3277 10.6569C24.3231 10.777 24.2945 10.895 24.2436 11.004C24.1926 11.113 24.1204 11.2108 24.031 11.2917C23.9417 11.3727 23.837 11.4351 23.7232 11.4754C23.6093 11.5157 23.4886 11.5331 23.3679 11.5265C23.2518 11.5225 23.1377 11.4957 23.0321 11.4476C22.9265 11.3995 22.8316 11.331 22.7527 11.2462C22.6739 11.1614 22.6127 11.0619 22.5727 10.9535C22.5327 10.8451 22.5148 10.7298 22.5198 10.6144C22.524 10.3808 22.6192 10.1579 22.7854 9.99263C22.9515 9.82739 23.1757 9.73271 23.4106 9.72852C23.6547 9.73486 23.8867 9.83522 24.0578 10.0084C24.2289 10.1816 24.3257 10.4141 24.3277 10.6569Z" fill="#707070"/>
<path d="M7.76245 20.9216C8.69434 20.9216 9.62623 20.9216 10.5565 20.9216C11.2385 20.9298 11.6034 21.2616 11.5968 21.832C11.5968 22.3665 11.2221 22.7261 10.591 22.731C8.70858 22.7452 6.82618 22.7452 4.94377 22.731C4.30772 22.731 3.8919 22.3077 3.91984 21.7765C3.94778 21.2452 4.34224 20.9281 4.97007 20.9216C5.90032 20.9151 6.8322 20.9216 7.76245 20.9216Z" fill="#707070"/>
<path d="M7.72962 30.9967C6.45259 30.9967 5.17391 31.0065 3.89852 30.9967C1.68302 30.9722 0.0296165 29.3213 0.0115375 27.1148C-0.00270652 24.8777 -0.00270652 22.64 0.0115375 20.4019C0.0263294 18.2639 1.58441 16.5902 3.73417 16.5657C8.29336 16.5117 12.8558 16.533 17.415 16.5657C17.7339 16.5657 18.2023 16.8223 18.3256 17.0854C18.4488 17.3486 18.3354 17.8488 18.1481 18.1234C17.4282 19.1694 16.6146 20.1534 15.8832 21.193C15.6744 21.5018 15.5561 21.8623 15.5414 22.2341C15.5036 23.7853 15.5414 25.3397 15.5233 26.8908C15.5069 29.4292 13.9241 30.9934 11.3783 30.9983L7.72962 30.9967ZM15.6696 18.411C15.4428 18.3881 15.3409 18.3685 15.2439 18.3685C11.4933 18.3685 7.74277 18.3555 3.9922 18.3685C2.61162 18.3685 1.84245 19.1972 1.83752 20.5931C1.83094 22.6896 1.83094 24.7867 1.83752 26.8843C1.83752 28.3978 2.63463 29.1726 4.17628 29.1726C6.54846 29.1726 8.92064 29.1726 11.2928 29.1726C12.9462 29.1726 13.6891 28.4273 13.694 26.7617C13.694 25.0684 13.671 23.375 13.7121 21.6817C13.7385 21.268 13.8734 20.8685 14.1033 20.5228C14.5585 19.8216 15.0976 19.1694 15.6696 18.4045V18.411Z" fill="#707070"/>
<path d="M6.30793 24.8166C6.77305 24.8166 7.23817 24.8052 7.70165 24.8166C8.28675 24.833 8.64669 25.1664 8.66477 25.6796C8.67322 25.8006 8.65629 25.9219 8.61507 26.036C8.57384 26.1501 8.50922 26.2544 8.4253 26.3423C8.34138 26.4302 8.24 26.4998 8.12759 26.5467C8.01518 26.5935 7.8942 26.6167 7.77232 26.6146C6.7862 26.6418 5.79678 26.6418 4.80408 26.6146C4.56792 26.6103 4.34286 26.5141 4.17723 26.3466C4.0116 26.1791 3.9186 25.9538 3.91821 25.7189C3.91821 25.2285 4.30116 24.8509 4.85503 24.8133C4.89448 24.8133 4.93557 24.8133 4.97501 24.8133L6.30793 24.8166Z" fill="#707070"/>
</g>
<defs>
<clipPath id="clip0_7_25">
<rect width="170" height="31" fill="white"/>
</clipPath>
</defs>
</svg>
