<svg id="Layer_1" data-name="Layer 1" xmlns="http://www.w3.org/2000/svg" viewBox="0 0 1034.4 189.68"><defs><style>.cls-1{fill:#fff;}.cls-2{fill:#34a853;}.cls-3{fill:#4285f4;}.cls-4{fill:#fbbc05;}.cls-5{fill:#ea4335;}</style></defs><title>intervuMe-original-white-logo</title><path class="cls-1" d="M266.76,48c0-6.85,5.36-12.21,12.8-12.21s12.8,5.36,12.8,12.21-5.51,12.2-12.8,12.2S266.76,54.83,266.76,48ZM269,70h20.84v82.46H269Z" transform="translate(0.04 0.01)"/><path class="cls-1" d="M370.36,107c0-13.25-7.3-20.39-18.31-20.39-11.31,0-18.61,7.14-18.61,20.39v45.55H312.6V70.05h20.84V80.32c5.36-7,14.29-11.47,24.86-11.47,19.2,0,32.9,12.51,32.9,35.28v48.38H370.36Z" transform="translate(0.04 0.01)"/><path class="cls-1" d="M416.5,87.16h-9.83V70.05h9.83V49.65h21v20.4H456V87.16H437.48v39.9c0,5.5,2.24,7.89,8.79,7.89h9.67v17.56h-13.1c-15.77,0-26.34-6.7-26.34-25.6Z" transform="translate(0.04 0.01)"/><path class="cls-1" d="M509.23,153.83c-24,0-41.38-16.67-41.38-42.57s17-42.57,41.38-42.57c23.81,0,40.63,16.22,40.63,40.78a47.65,47.65,0,0,1-.59,8H489c1,12.2,9.37,19,19.79,19,8.93,0,13.84-4.46,16.52-10h22.48C543.31,141.83,529.62,153.83,509.23,153.83Zm-20.05-50.29h39.1c-.3-10.87-8.93-17.71-19.65-17.71C498.66,85.83,490.77,92.22,489.18,103.54Z" transform="translate(0.04 0.01)"/><path class="cls-1" d="M588.11,152.51H567.28V70.05h20.83V82.83a28.6,28.6,0,0,1,25.31-14V90.74h-5.51c-12.35,0-19.8,4.76-19.8,20.69Z" transform="translate(0.04 0.01)"/><path class="cls-1" d="M643.18,70.05,664,133.31l20.83-63.26H707l-30.51,82.46H651.18L620.86,70.05Z" transform="translate(0.04 0.01)"/><path class="cls-1" d="M798.88,152.51h-21V142.09c-5.21,7-14.29,11.46-24.56,11.46-19.2,0-33-12.5-33-35.13V70.05h20.86v45.4c0,13.24,7.29,20.39,18.31,20.39,11.31,0,18.45-7.15,18.45-20.39V70.05h21Z" transform="translate(0.04 0.01)"/><path class="cls-1" d="M821.65,48.61h23.67l33,77.22,33-77.25h23.52v103.9h-20.8V84.93l-27.84,67.58H870.48l-28-67.58v67.58H821.65Z" transform="translate(0.04 0.01)"/><path class="cls-1" d="M993.72,153.83c-24,0-41.38-16.67-41.38-42.57s17-42.57,41.38-42.57c23.82,0,40.64,16.22,40.64,40.78a48.73,48.73,0,0,1-.6,8H973.48c1,12.2,9.37,19,19.79,19,8.93,0,13.85-4.46,16.53-10h22.47C1027.81,141.83,1014.11,153.83,993.72,153.83Zm-20.09-50.31h39.14c-.29-10.87-8.93-17.72-19.65-17.72-9.94,0-17.86,6.42-19.49,17.74Z" transform="translate(0.04 0.01)"/><path class="cls-2" d="M171.31,141.1c13.08,8.1,19.12,19.69,18.38,34.86-.13,2.58.06,5.18,0,7.77-.14,3.66-2.15,5.85-5.76,5.86q-29.61.1-59.21,0c-3.08,0-5.38-1.75-5.42-4.93-.07-6.4-.37-12.9.59-19.17,1.58-10.33,6.45-16.53,17.54-24.51-5.56-6.68-7.87-14.28-5.48-22.88a22.66,22.66,0,0,1,9.37-12.89A23.43,23.43,0,0,1,170.88,108C179.77,116.89,180,128.48,171.31,141.1Zm-40.83,37.14h47.88c1.13-11.43-1.7-21-11.91-26.91-8.38-4.87-17.09-4.63-25.24.63C131.71,158.1,129.25,167.38,130.48,178.24Zm11.7-53.71a12.25,12.25,0,0,0,12.13,12.3,12.5,12.5,0,0,0,12.33-12.24,12.27,12.27,0,0,0-12.22-12.24,12.09,12.09,0,0,0-12.24,11.94Z" transform="translate(0.04 0.01)"/><path class="cls-3" d="M52.69,39.38c3.65,3.53,7.58,6.74,10.79,10.55a30,30,0,0,1,7,18.71c.14,4.31.13,8.63.09,13,0,5.06-1.81,6.83-7,6.85H25.07c-6.05,0-12.09.05-18.14,0-5,0-6.91-2-6.91-7S-.24,71.57.33,66.7C1.75,54.83,8.26,46.21,18.52,39.9,13.57,34,11,27.44,12.26,19.83A22.93,22.93,0,0,1,20.54,5.39a23.26,23.26,0,0,1,30.79,1C60.68,15.2,61.1,27.38,52.69,39.38ZM59,77.11c2-10.94-1.9-20.92-10.44-26.27-8.74-5.49-17.79-5.59-26.45,0C12.7,57,10.23,66.29,11.4,77.11ZM47.54,23.28a12.21,12.21,0,0,0-12.3-12.12h-.06a12.43,12.43,0,0,0-12.1,12.41,12.26,12.26,0,0,0,12.42,12,12.09,12.09,0,0,0,12-12.14Z" transform="translate(0.04 0.01)"/><path class="cls-4" d="M125.77,88.46H85.43c-2.89,0-5.83.06-7.36-3s.07-5.41,1.85-7.76c4.55-6,9.12-12,13.47-18.09a10.12,10.12,0,0,0,1.79-5.39c.18-9.74,0-19.49.1-29.23.11-15.32,9.78-24.95,25-25h44.77c14.67,0,24.58,10,24.61,24.65V63.86c0,14.54-9.72,24.39-24.3,24.54C152.18,88.56,139,88.46,125.77,88.46ZM94.41,77c1.21.18,1.77.34,2.33.35,23.07,0,46.14.09,69.2-.06,7.77,0,12.54-5.16,12.58-13,.08-13.07,0-26.15,0-39.23,0-9-4.89-13.87-14-13.88h-44c-9.36,0-14,4.67-14.08,14.15-.06,10.36.17,20.73-.14,31.08a17.08,17.08,0,0,1-2.67,8.1C101,68.71,97.71,72.55,94.41,77Z" transform="translate(0.04 0.01)"/><path class="cls-4" d="M125.18,33.83c.15-8.35,8-16,17.32-16a17.67,17.67,0,0,1,17.44,16.72c.53,8.89-6.74,17.3-15.59,18-4.21.34-6.78-1.25-7.26-4.49-.52-3.48,1.52-5.76,5.83-6.55,4.63-.84,7-4.6,5.4-8.53a5.91,5.91,0,0,0-6-4,6,6,0,0,0-5.95,4.85c-.19.71-.15,1.47-.32,2.19-.78,3.4-3.27,5.33-6.38,4.72C126.38,40.08,125,37.88,125.18,33.83Z" transform="translate(0.04 0.01)"/><path class="cls-4" d="M148,65.2a5.54,5.54,0,0,1-5.75,5.32h-.09A5.35,5.35,0,0,1,137,65v0a5.52,5.52,0,0,1,5.42-5.42A5.73,5.73,0,0,1,148,65.2Z" transform="translate(0.04 0.01)"/><path class="cls-5" d="M47.23,128h17c4.15.05,6.37,2.08,6.33,5.57,0,3.27-2.28,5.47-6.12,5.5q-17.17.13-34.36,0c-3.87,0-6.4-2.59-6.23-5.84S26.42,128,30.24,128C35.9,128,41.57,128,47.23,128Z" transform="translate(0.04 0.01)"/><path class="cls-5" d="M47,189.64c-7.77,0-15.55.06-23.31,0C10.24,189.49.18,179.39.07,165.89q-.13-20.53,0-41.07c.09-13.08,9.57-23.32,22.65-23.47,27.74-.33,55.5-.2,83.24,0,1.94,0,4.79,1.57,5.54,3.18s.06,4.67-1.08,6.35c-4.38,6.4-9.33,12.42-13.78,18.78A12.28,12.28,0,0,0,94.56,136c-.23,9.49,0,19-.11,28.49-.1,15.53-9.73,25.1-25.22,25.13Zm48.31-77c-1.38-.14-2-.26-2.59-.26-22.82,0-45.64-.08-68.46,0-8.4,0-13.08,5.07-13.11,13.61q-.06,19.24,0,38.49c0,9.26,4.85,14,14.23,14h43.3c10.06,0,14.58-4.56,14.61-14.75,0-10.36-.14-20.72.11-31.08a14.49,14.49,0,0,1,2.38-7.09c2.77-4.29,6-8.28,9.53-13Z" transform="translate(0.04 0.01)"/><path class="cls-5" d="M38.38,151.83c2.83,0,5.66-.07,8.48,0,3.56.1,5.75,2.14,5.86,5.28a5.36,5.36,0,0,1-5,5.71h-.46q-9,.25-18.06,0a5.48,5.48,0,0,1-5.39-5.48c0-3,2.33-5.31,5.7-5.54h.73Z" transform="translate(0.04 0.01)"/></svg>