<svg width="86" height="86" viewBox="0 0 86 86" fill="none" xmlns="http://www.w3.org/2000/svg">
<circle cx="43" cy="43" r="43" fill="#34A853"/>
<path d="M62.3362 54.9701C65.6443 57.0327 67.1718 59.984 66.9847 63.8469C66.9518 64.5039 66.9999 65.1659 66.9847 65.8255C66.9493 66.7575 66.4409 67.3151 65.5279 67.3177C60.5354 67.3363 55.5438 67.3363 50.5529 67.3177C49.774 67.3177 49.1923 66.872 49.1822 66.0623C49.1645 64.4326 49.0886 62.7774 49.3314 61.1808C49.731 58.5503 50.9627 56.9715 53.7675 54.9395C52.3613 53.2385 51.777 51.3032 52.3815 49.1133C52.7513 47.7667 53.5932 46.6006 54.7513 45.8309C55.8872 45.0617 57.2525 44.7121 58.6154 44.8417C59.9782 44.9712 61.2545 45.5718 62.2274 46.5414C64.4758 48.8052 64.5365 51.7565 62.3362 54.9701ZM52.0097 64.4275H64.1192C64.405 61.5169 63.6892 59.08 61.107 57.5751C58.9876 56.3349 56.7847 56.3961 54.7235 57.7355C52.3208 59.299 51.6986 61.6621 52.0097 64.4275ZM54.9688 50.7506C54.9654 51.5749 55.2862 52.367 55.861 52.9538C56.4359 53.5407 57.218 53.8747 58.0366 53.8827C58.8564 53.8717 59.6398 53.5405 60.2216 52.959C60.8034 52.3775 61.1381 51.5911 61.1551 50.7659C61.1531 49.9408 60.827 49.1499 60.2479 48.566C59.6689 47.9821 58.884 47.6525 58.0645 47.6491C57.6578 47.644 57.2542 47.7206 56.8774 47.8745C56.5005 48.0284 56.1579 48.2564 55.8696 48.5452C55.5813 48.834 55.3532 49.1779 55.1985 49.5565C55.0438 49.9352 54.9657 50.3412 54.9688 50.7506Z" fill="white"/>
<path d="M32.3359 29.0675C33.259 29.9664 34.253 30.7838 35.0648 31.754C36.1782 33.0919 36.803 34.7732 36.8352 36.5184C36.8706 37.6159 36.8681 38.7159 36.858 39.8287C36.858 41.1172 36.4002 41.5679 35.0876 41.573C31.8427 41.573 28.5953 41.573 25.3504 41.573C23.8203 41.573 22.2927 41.5857 20.7626 41.573C19.498 41.573 19.015 41.0637 19.015 39.7905C19.015 38.5173 18.9492 37.2645 19.0934 36.0244C19.4525 33.0017 21.099 30.8067 23.6939 29.1999C22.4419 27.695 21.7919 26.0271 22.1106 24.0893C22.3263 22.6427 23.0737 21.3304 24.2047 20.4122C25.3102 19.4911 26.712 19.0086 28.1462 19.0555C29.5804 19.1024 30.9481 19.6755 31.9919 20.6669C34.3567 22.9103 34.4629 26.0118 32.3359 29.0675ZM33.9343 38.6752C34.4401 35.8894 33.4538 33.3481 31.2939 31.9857C29.0834 30.5877 26.7946 30.5623 24.6043 31.9985C22.2219 33.562 21.5972 35.9199 21.8931 38.6752H33.9343ZM31.0334 24.9678C31.0304 24.5582 30.9471 24.1532 30.7882 23.7761C30.6293 23.399 30.398 23.0573 30.1075 22.7705C29.817 22.4837 29.4731 22.2575 29.0955 22.105C28.718 21.9524 28.3142 21.8765 27.9074 21.8815C27.089 21.9034 26.3115 22.2458 25.74 22.836C25.1685 23.4261 24.8482 24.2174 24.8471 25.0416C24.8605 25.8676 25.1987 26.6546 25.7875 27.2298C26.3764 27.8051 27.1679 28.1216 27.9883 28.1101C28.3942 28.1085 28.7957 28.0255 29.1693 27.8661C29.543 27.7067 29.8815 27.4739 30.1649 27.1814C30.4483 26.8889 30.6711 26.5426 30.8202 26.1625C30.9693 25.7825 31.0418 25.3763 31.0334 24.9678Z" fill="white"/>
<path d="M50.8185 41.5657H40.616C39.8851 41.5657 39.1415 41.581 38.7546 40.8018C38.3676 40.0226 38.7723 39.4241 39.2225 38.8257C40.3732 37.2979 41.529 35.77 42.6292 34.2193C42.9068 33.8144 43.0638 33.3383 43.0819 32.8467C43.1274 30.3665 43.0819 27.8838 43.1072 25.4035C43.135 21.5024 45.5807 19.0502 49.43 19.0375C53.2069 19.0375 56.9812 19.0375 60.7529 19.0375C64.4632 19.0375 66.9695 21.5839 66.9771 25.3144C66.9771 28.6417 66.9771 31.9708 66.9771 35.3015C66.9771 39.004 64.5188 41.5122 60.8313 41.5504C57.498 41.5912 54.1544 41.5657 50.8185 41.5657ZM42.8872 38.6373C43.1932 38.6831 43.3348 38.7239 43.4765 38.7264C49.3112 38.7264 55.1459 38.7493 60.978 38.7111C62.9432 38.7111 64.1496 37.3972 64.1597 35.4008C64.1799 32.0726 64.1597 28.7419 64.1597 25.4112C64.1597 23.1194 62.9229 21.8793 60.6189 21.8767C56.9095 21.8767 53.2001 21.8767 49.4907 21.8767C47.1235 21.8767 45.9499 23.0659 45.9297 25.4799C45.9145 28.118 45.9727 30.7587 45.8943 33.3942C45.8461 34.1282 45.6137 34.8378 45.219 35.4568C44.5463 36.5365 43.7218 37.5143 42.8872 38.6373Z" fill="white"/>
<path d="M50.6693 27.6546C50.7072 25.5283 52.6926 23.5803 55.0498 23.5803C56.1845 23.5935 57.2717 24.0409 58.0908 24.8316C58.9099 25.6222 59.3996 26.6971 59.4606 27.8379C59.5946 30.1017 57.7559 32.2433 55.5176 32.4215C54.4529 32.5081 53.8029 32.1032 53.6815 31.2782C53.55 30.392 54.0659 29.8114 55.156 29.6103C56.327 29.3964 56.9264 28.4389 56.5217 27.4382C56.4159 27.1236 56.2096 26.8531 55.9351 26.6688C55.6607 26.4846 55.3334 26.397 55.0042 26.4196C54.6496 26.4159 54.3049 26.5375 54.03 26.7631C53.7551 26.9887 53.5674 27.3041 53.4994 27.6546C53.4514 27.8354 53.4615 28.0289 53.4185 28.2123C53.2212 29.0781 52.5914 29.5695 51.8049 29.4142C50.9728 29.2461 50.6137 28.6859 50.6693 27.6546Z" fill="white"/>
<path d="M56.4458 35.6427C56.4387 35.8298 56.3947 36.0136 56.3163 36.1834C56.2379 36.3532 56.1268 36.5056 55.9893 36.6317C55.8518 36.7578 55.6908 36.8551 55.5156 36.9179C55.3404 36.9806 55.1545 37.0077 54.9688 36.9974C54.7902 36.9912 54.6146 36.9494 54.4521 36.8745C54.2896 36.7995 54.1435 36.6929 54.0222 36.5608C53.9008 36.4287 53.8067 36.2737 53.7452 36.1048C53.6837 35.9358 53.656 35.7563 53.6638 35.5765C53.6703 35.2125 53.8168 34.8652 54.0725 34.6078C54.3282 34.3504 54.6731 34.2029 55.0346 34.1964C55.4101 34.2062 55.7672 34.3626 56.0305 34.6324C56.2938 34.9022 56.4427 35.2645 56.4458 35.6427Z" fill="white"/>
<path d="M30.9548 51.6343C32.3888 51.6343 33.8228 51.6343 35.2543 51.6343C36.3039 51.647 36.8653 52.1639 36.8552 53.0526C36.8552 53.8853 36.2786 54.4455 35.3074 54.4532C32.4107 54.4752 29.514 54.4752 26.6173 54.4532C25.6385 54.4532 24.9987 53.7936 25.0417 52.966C25.0846 52.1384 25.6916 51.6444 26.6578 51.6343C28.0893 51.6241 29.5233 51.6343 30.9548 51.6343Z" fill="white"/>
<path d="M30.9042 67.3304C28.939 67.3304 26.9714 67.3457 25.0088 67.3304C21.5995 67.2922 19.0552 64.7203 19.0274 61.2827C19.0054 57.7975 19.0054 54.3114 19.0274 50.8245C19.0501 47.4938 21.4477 44.8862 24.7558 44.848C31.7716 44.764 38.7925 44.7971 45.8083 44.848C46.299 44.848 47.0198 45.2478 47.2095 45.6578C47.3991 46.0678 47.2246 46.847 46.9363 47.2748C45.8285 48.9045 44.5766 50.4374 43.4512 52.057C43.1299 52.5381 42.9477 53.0997 42.9251 53.679C42.8669 56.0956 42.9251 58.5172 42.8973 60.9338C42.872 64.8884 40.4364 67.3253 36.5188 67.333L30.9042 67.3304ZM43.1224 47.723C42.7734 47.6873 42.6166 47.6567 42.4673 47.6567C36.6959 47.6567 30.9244 47.6364 25.1529 47.6567C23.0284 47.6567 21.8448 48.9478 21.8372 51.1224C21.8271 54.3886 21.8271 57.6557 21.8372 60.9236C21.8372 63.2816 23.0639 64.4886 25.4362 64.4886C29.0866 64.4886 32.7369 64.4886 36.3873 64.4886C38.9316 64.4886 40.0748 63.3274 40.0824 60.7326C40.0824 58.0945 40.047 55.4564 40.1102 52.8184C40.1508 52.174 40.3583 51.5515 40.7121 51.0129C41.4127 49.9205 42.2422 48.9045 43.1224 47.7128V47.723Z" fill="white"/>
<path d="M28.7164 57.7024C29.4322 57.7024 30.1479 57.6846 30.8611 57.7024C31.7615 57.7278 32.3154 58.2473 32.3432 59.0469C32.3562 59.2353 32.3302 59.4244 32.2667 59.6021C32.2033 59.7798 32.1039 59.9423 31.9747 60.0793C31.8456 60.2162 31.6896 60.3247 31.5166 60.3977C31.3436 60.4707 31.1574 60.5067 30.9699 60.5034C29.4524 60.5459 27.9299 60.5459 26.4023 60.5034C26.0389 60.4968 25.6926 60.3469 25.4377 60.086C25.1828 59.8251 25.0397 59.474 25.0391 59.108C25.0391 58.3441 25.6284 57.7559 26.4807 57.6973C26.5414 57.6973 26.6046 57.6973 26.6653 57.6973L28.7164 57.7024Z" fill="white"/>
</svg>
