<svg width="60" height="60" viewBox="0 0 60 60" fill="none" xmlns="http://www.w3.org/2000/svg">
<path d="M50.5175 14.2675L39.4825 3.23251C39.2703 3.02327 39.0222 2.85391 38.75 2.73251V11.25C38.75 12.2446 39.1451 13.1984 39.8483 13.9017C40.5516 14.6049 41.5054 15 42.5 15H51.0175C50.8961 14.7278 50.7267 14.4797 50.5175 14.2675Z" fill="white"/>
<path d="M20 12.795L19.3138 14.1663H20.6863L20 12.795Z" fill="white"/>
<path d="M42.5 17.5C40.843 17.498 39.2544 16.8389 38.0828 15.6672C36.9111 14.4956 36.252 12.907 36.25 11.25V2.5H15C13.3424 2.5 11.7527 3.15848 10.5806 4.33058C9.40848 5.50269 8.75 7.0924 8.75 8.75V51.25C8.75 52.9076 9.40848 54.4973 10.5806 55.6694C11.7527 56.8415 13.3424 57.5 15 57.5H45C45.8208 57.5 46.6335 57.3383 47.3918 57.0242C48.1501 56.7102 48.8391 56.2498 49.4194 55.6694C49.9998 55.0891 50.4602 54.4001 50.7742 53.6418C51.0883 52.8835 51.25 52.0708 51.25 51.25V17.5H42.5ZM25.625 11.875H26.25V11.25C26.25 10.9185 26.3817 10.6005 26.6161 10.3661C26.8505 10.1317 27.1685 10 27.5 10C27.8315 10 28.1495 10.1317 28.3839 10.3661C28.6183 10.6005 28.75 10.9185 28.75 11.25V11.875H29.375C29.7065 11.875 30.0245 12.0067 30.2589 12.2411C30.4933 12.4755 30.625 12.7935 30.625 13.125C30.625 13.4565 30.4933 13.7745 30.2589 14.0089C30.0245 14.2433 29.7065 14.375 29.375 14.375H28.75V15C28.75 15.3315 28.6183 15.6495 28.3839 15.8839C28.1495 16.1183 27.8315 16.25 27.5 16.25C27.1685 16.25 26.8505 16.1183 26.6161 15.8839C26.3817 15.6495 26.25 15.3315 26.25 15V14.375H25.625C25.2935 14.375 24.9755 14.2433 24.7411 14.0089C24.5067 13.7745 24.375 13.4565 24.375 13.125C24.375 12.7935 24.5067 12.4755 24.7411 12.2411C24.9755 12.0067 25.2935 11.875 25.625 11.875ZM15.6913 18.625C15.5443 18.5517 15.4132 18.4501 15.3055 18.3261C15.1978 18.2021 15.1156 18.0581 15.0636 17.9023C15.0116 17.7465 14.9908 17.582 15.0024 17.4182C15.014 17.2543 15.0578 17.0944 15.1312 16.9475L18.8812 9.4475C18.9967 9.25378 19.1606 9.09337 19.3567 8.98197C19.5528 8.87058 19.7745 8.81201 20 8.81201C20.2255 8.81201 20.4472 8.87058 20.6433 8.98197C20.8394 9.09337 21.0033 9.25378 21.1188 9.4475L24.8688 16.9475C25.0169 17.2442 25.0412 17.5876 24.9362 17.9022C24.8312 18.2168 24.6055 18.4768 24.3088 18.625C24.012 18.7732 23.6686 18.7974 23.354 18.6924C23.0394 18.5874 22.7794 18.3617 22.6312 18.065L21.9362 16.6725H18.0613L17.375 18.0587C17.3022 18.2071 17.2008 18.3395 17.0766 18.4483C16.9524 18.5572 16.8078 18.6404 16.6512 18.693C16.4946 18.7457 16.3292 18.7668 16.1644 18.7551C15.9997 18.7434 15.8388 18.6992 15.6913 18.625ZM36.25 50H17.5C17.1685 50 16.8505 49.8683 16.6161 49.6339C16.3817 49.3995 16.25 49.0815 16.25 48.75C16.25 48.4185 16.3817 48.1005 16.6161 47.8661C16.8505 47.6317 17.1685 47.5 17.5 47.5H36.25C36.5815 47.5 36.8995 47.6317 37.1339 47.8661C37.3683 48.1005 37.5 48.4185 37.5 48.75C37.5 49.0815 37.3683 49.3995 37.1339 49.6339C36.8995 49.8683 36.5815 50 36.25 50ZM42.5 43.75H17.5C17.1685 43.75 16.8505 43.6183 16.6161 43.3839C16.3817 43.1495 16.25 42.8315 16.25 42.5C16.25 42.1685 16.3817 41.8505 16.6161 41.6161C16.8505 41.3817 17.1685 41.25 17.5 41.25H42.5C42.8315 41.25 43.1495 41.3817 43.3839 41.6161C43.6183 41.8505 43.75 42.1685 43.75 42.5C43.75 42.8315 43.6183 43.1495 43.3839 43.3839C43.1495 43.6183 42.8315 43.75 42.5 43.75ZM42.5 37.5H17.5C17.1685 37.5 16.8505 37.3683 16.6161 37.1339C16.3817 36.8995 16.25 36.5815 16.25 36.25C16.25 35.9185 16.3817 35.6005 16.6161 35.3661C16.8505 35.1317 17.1685 35 17.5 35H42.5C42.8315 35 43.1495 35.1317 43.3839 35.3661C43.6183 35.6005 43.75 35.9185 43.75 36.25C43.75 36.5815 43.6183 36.8995 43.3839 37.1339C43.1495 37.3683 42.8315 37.5 42.5 37.5ZM42.5 31.25H17.5C17.1685 31.25 16.8505 31.1183 16.6161 30.8839C16.3817 30.6495 16.25 30.3315 16.25 30C16.25 29.6685 16.3817 29.3505 16.6161 29.1161C16.8505 28.8817 17.1685 28.75 17.5 28.75H42.5C42.8315 28.75 43.1495 28.8817 43.3839 29.1161C43.6183 29.3505 43.75 29.6685 43.75 30C43.75 30.3315 43.6183 30.6495 43.3839 30.8839C43.1495 31.1183 42.8315 31.25 42.5 31.25ZM42.5 25H21.25C20.9185 25 20.6005 24.8683 20.3661 24.6339C20.1317 24.3995 20 24.0815 20 23.75C20 23.4185 20.1317 23.1005 20.3661 22.8661C20.6005 22.6317 20.9185 22.5 21.25 22.5H42.5C42.8315 22.5 43.1495 22.6317 43.3839 22.8661C43.6183 23.1005 43.75 23.4185 43.75 23.75C43.75 24.0815 43.6183 24.3995 43.3839 24.6339C43.1495 24.8683 42.8315 25 42.5 25Z" fill="white"/>
</svg>
