<svg width="80" height="80" viewBox="0 0 80 80" fill="none" xmlns="http://www.w3.org/2000/svg">
<path d="M23.8181 36.6575C22.3616 37.2622 21.018 38.0364 20.4769 39.654C20.3677 39.9814 19.8959 42.5594 19.6789 43.7585C19.6653 43.8331 19.6682 43.9097 19.6875 43.983C19.7068 44.0562 19.742 44.1244 19.7906 44.1825C19.8392 44.2406 19.9 44.2874 19.9687 44.3194C20.0373 44.3514 20.1122 44.3679 20.188 44.3677H43.553C43.6434 44.368 43.7322 44.3443 43.8104 44.299C43.903 44.2459 43.9768 44.1654 44.0218 44.0686C44.0667 43.9718 44.0806 43.8635 44.0614 43.7585C43.8451 42.5594 43.3727 39.9814 43.2635 39.654C42.723 38.0363 41.3794 37.2622 39.9229 36.6575C39.7367 36.5804 39.5487 36.506 39.3606 36.4328C38.0908 35.9404 36.8213 35.4481 35.552 34.9557C35.2454 35.6785 34.7328 36.2951 34.0781 36.7286C33.4235 37.162 32.6557 37.3931 31.8705 37.3931C31.0854 37.3931 30.3176 37.162 29.6629 36.7286C29.0082 36.2951 28.4956 35.6785 28.189 34.9557C26.9193 35.4481 25.6498 35.9404 24.3805 36.4328C24.1924 36.506 24.0043 36.5805 23.8181 36.6575Z" fill="white"/>
<path d="M31.87 33.5935C32.9589 33.5932 34.0137 33.2143 34.854 32.5217C35.6942 31.8292 36.2675 30.8661 36.4757 29.7973L37.1922 26.1053C37.2872 25.4065 37.2316 24.6954 37.0291 24.0198C36.8265 23.3443 36.4817 22.7199 36.0179 22.1886C35.554 21.6573 34.9819 21.2315 34.3398 20.9396C33.6978 20.6478 33.0007 20.4967 32.2954 20.4966H31.4446C30.7394 20.4967 30.0423 20.6477 29.4002 20.9396C28.7582 21.2314 28.186 21.6573 27.7222 22.1886C27.2584 22.7199 26.9137 23.3443 26.7112 24.0199C26.5087 24.6954 26.4531 25.4065 26.5482 26.1053L27.2645 29.7973C27.4727 30.866 28.046 31.8291 28.8862 32.5216C29.7264 33.2142 30.7812 33.5931 31.87 33.5935Z" fill="white"/>
<path d="M77.3742 59.927C77.2687 59.3114 77.0196 58.7293 76.6472 58.2278C76.2747 57.7264 75.7894 57.3197 75.2306 57.0407C71.5033 55.1815 63.3237 52.4359 63.3237 52.4359V49.7356L63.5517 49.564C65.1394 48.3489 66.2009 46.5713 66.5177 44.5972L66.5641 44.3106H66.7866C67.3863 44.3102 67.9723 44.1311 68.4698 43.7963C68.9673 43.4614 69.3538 42.9858 69.5798 42.4303C69.8497 41.9434 69.991 41.3957 69.9904 40.8389C69.9906 40.4554 69.9177 40.0753 69.7757 39.7189C69.7044 39.3294 69.488 38.9814 69.1703 38.7451L68.4156 38.2869L68.6037 37.4679C69.9661 31.5251 65.3623 26.1731 59.1815 26.0248C59.031 26.0227 58.8816 26.0204 58.7344 26.0237C58.5861 26.0204 58.4378 26.0227 58.2873 26.0248C52.1054 26.1732 47.5015 31.5251 48.8649 37.4679L49.0531 38.2869L48.2984 38.745C47.9803 38.9813 47.7636 39.3293 47.6919 39.7189C47.5504 40.0754 47.4776 40.4554 47.4772 40.8389C47.4772 41.3956 47.6184 41.9432 47.8877 42.4303C48.1142 42.9858 48.5009 43.4613 48.9985 43.7961C49.4962 44.131 50.0823 44.3101 50.6822 44.3106H50.9046L50.95 44.5972C51.2667 46.5716 52.3286 48.3493 53.917 49.564L54.1449 49.7356V52.4359C54.1449 52.4359 45.9654 55.1815 42.2382 57.0407C41.6792 57.3195 41.1938 57.7261 40.8213 58.2276C40.4489 58.7291 40.1999 59.3113 40.0945 59.927C39.6505 63.2481 39.3996 66.5922 39.343 69.9425H78.1256C78.0691 66.5922 77.8182 63.2481 77.3742 59.927Z" fill="white"/>
<path d="M48.4427 49.8714C48.0361 49.2321 47.6896 48.5564 47.4077 47.8531C47.1381 47.7163 46.8772 47.5629 46.6267 47.3936H5.76546V15.1689C5.73901 14.9227 5.80981 14.6758 5.96274 14.481C6.11568 14.2862 6.33866 14.1589 6.58415 14.1261H57.1531C57.3987 14.1592 57.6218 14.2865 57.7751 14.4811C57.9285 14.6758 58.0002 14.9224 57.9749 15.1689V21.7266C58.0448 21.724 58.1138 21.7176 58.1839 21.716L58.227 21.7152C58.4039 21.7127 58.5703 21.7112 58.7342 21.7131C58.8978 21.7107 59.0631 21.7128 59.2301 21.7151L59.2848 21.716C60.1519 21.7375 61.0155 21.8339 61.866 22.0042V13.681C61.8661 13.2051 61.7724 12.7339 61.5904 12.2943C61.4083 11.8546 61.1414 11.4551 60.8049 11.1187C60.4684 10.7822 60.069 10.5153 59.6293 10.3332C59.1897 10.1512 58.7185 10.0575 58.2426 10.0576H5.49777C5.02192 10.0575 4.55071 10.1512 4.11107 10.3332C3.67142 10.5153 3.27196 10.7822 2.93548 11.1187C2.599 11.4552 2.33211 11.8546 2.15004 12.2943C1.96797 12.7339 1.8743 13.2051 1.87437 13.681V50.1018C1.87658 51.0616 2.25924 51.9813 2.93847 52.6593C3.61769 53.3374 4.53805 53.7185 5.49779 53.719H23.5712L20.1969 62.3355C20.1457 62.4654 20.127 62.6058 20.1424 62.7446C20.1579 62.8833 20.2071 63.0162 20.2857 63.1316C20.3642 63.247 20.4698 63.3414 20.5932 63.4066C20.7166 63.4719 20.8541 63.506 20.9937 63.5059H35.3461C35.4647 62.0119 35.6264 60.4831 35.8463 59.1994C36.0683 57.9163 36.5887 56.7032 37.3654 55.6581C38.1422 54.6129 39.1536 53.7648 40.3181 53.182C42.4326 52.1272 45.7581 50.8487 48.4427 49.8714Z" fill="white"/>
</svg>
